<?xml version="1.0" encoding="iso-8859-1"?>
<!-- Generator: Adobe Illustrator 19.0.0, SVG Export Plug-In . SVG Version: 6.00 Build 0)  -->
<svg version="1.1" id="Layer_1" xmlns="http://www.w3.org/2000/svg" xmlns:xlink="http://www.w3.org/1999/xlink" x="0px" y="0px"
	 viewBox="0 0 512 512" style="enable-background:new 0 0 512 512;" xml:space="preserve">
<g>
	<g>
		<path d="M0,324.267v29.867c0,21.333,17.067,38.4,38.4,38.4h163.84l-12.8,51.2h-1.707c-23.893,0-42.667,18.773-42.667,42.667
			c0,5.12,3.413,8.533,8.533,8.533h204.8c5.12,0,8.533-3.413,8.533-8.533c0-23.893-18.773-42.667-42.667-42.667h-1.707l-12.8-51.2
			H473.6c21.333,0,38.4-17.067,38.4-38.4v-29.867H0z M207.36,443.733l12.8-51.2h71.68l12.8,51.2H207.36z"/>
	</g>
</g>
<g>
	<g>
		<rect x="93.867" y="68.267" width="102.4" height="102.4"/>
	</g>
</g>
<g>
	<g>
		<path d="M473.6,17.067H38.4c-21.333,0-38.4,17.067-38.4,38.4V307.2h512V55.467C512,34.133,494.933,17.067,473.6,17.067z
			 M256,59.733h128c5.12,0,8.533,3.413,8.533,8.533S389.12,76.8,384,76.8H256c-5.12,0-8.533-3.413-8.533-8.533
			S250.88,59.733,256,59.733z M273.067,119.467c0,0.853,0,2.56-0.853,3.413c0,0.853-0.853,1.707-1.707,2.56
			c0,0-0.853,0.853-1.707,0.853c0,0-0.853,0.853-1.707,0.853S266.24,128,265.387,128s-0.853,0-1.707,0
			c-2.56,0-4.267-0.853-5.973-2.56c-0.853-0.853-1.707-1.707-1.707-2.56s-0.853-1.707-0.853-3.413s0-2.56,0.853-3.413
			c0-0.853,0.853-1.707,1.707-2.56c1.707-1.707,5.12-2.56,7.68-2.56c0.853,0,0.853,0,1.707,0.853c0.853,0,0.853,0,1.707,0.853
			c0.853,0,0.853,0.853,1.707,0.853c0.853,0.853,1.707,1.707,1.707,2.56C273.067,116.907,273.067,118.613,273.067,119.467z
			 M256,162.133h17.067c5.12,0,8.533,3.413,8.533,8.533c0,5.12-3.413,8.533-8.533,8.533H256c-5.12,0-8.533-3.413-8.533-8.533
			C247.467,165.547,250.88,162.133,256,162.133z M256,213.333h128c5.12,0,8.533,3.413,8.533,8.533c0,5.12-3.413,8.533-8.533,8.533
			H256c-5.12,0-8.533-3.413-8.533-8.533C247.467,216.747,250.88,213.333,256,213.333z M298.667,170.667
			c0-2.56,0.853-4.267,2.56-5.973c3.413-3.413,8.533-3.413,11.947,0c1.707,1.707,2.56,4.267,2.56,5.973c0,0.853,0,0.853,0,1.707
			s0,0.853-0.853,1.707c0,0.853,0,0.853-0.853,1.707c0,0-0.853,0.853-0.853,1.707c-1.707,0.853-3.413,1.707-5.973,1.707
			s-4.267-0.853-5.973-2.56S298.667,173.227,298.667,170.667z M219.307,215.893c1.707,1.707,2.56,3.413,2.56,5.973
			s-0.853,4.267-2.56,5.973c-1.707,1.707-3.413,2.56-5.973,2.56c-0.853,0-2.56,0-3.413-0.853c-0.853,0-1.707-0.853-2.56-1.707
			c-1.707-1.707-2.56-3.413-2.56-5.973s0.853-4.267,2.56-5.973c0.853-0.853,1.707-1.707,2.56-1.707
			C213.333,212.48,216.747,213.333,219.307,215.893z M76.8,51.2h136.533v136.533H76.8V51.2z M85.333,213.333h85.333
			c5.12,0,8.533,3.413,8.533,8.533c0,5.12-3.413,8.533-8.533,8.533H85.333c-5.12,0-8.533-3.413-8.533-8.533
			C76.8,216.747,80.213,213.333,85.333,213.333z M91.307,279.04c0,0-0.853,0.853-1.707,0.853c0,0-0.853,0.853-1.707,0.853
			s-0.853,0.853-1.707,0.853s-0.853,0-1.707,0s-2.56,0-3.413-0.853c-0.853,0-1.707-0.853-2.56-1.707
			c-0.853-1.707-1.707-3.413-1.707-5.973c0-0.853,0-2.56,0.853-3.413c0-0.853,0.853-1.707,1.707-2.56
			c1.707-1.707,5.12-2.56,7.68-2.56c0.853,0,0.853,0,1.707,0.853c0.853,0,0.853,0,1.707,0.853c0.853,0,0.853,0.853,1.707,0.853
			c0.853,0.853,1.707,1.707,1.707,2.56c0,0.853,0.853,1.707,0.853,3.413C93.867,275.627,93.013,277.333,91.307,279.04z M256,281.6
			H128c-5.12,0-8.533-3.413-8.533-8.533s3.413-8.533,8.533-8.533h128c5.12,0,8.533,3.413,8.533,8.533S261.12,281.6,256,281.6z
			 M426.667,281.6h-128c-5.12,0-8.533-3.413-8.533-8.533s3.413-8.533,8.533-8.533h128c5.12,0,8.533,3.413,8.533,8.533
			S431.787,281.6,426.667,281.6z M435.2,222.72c0,0.853,0,0,0,0.853c0,0.853,0,0.853-0.853,1.707c0,0.853,0,0.853-0.853,1.707
			c0,0-0.853,0.853-0.853,1.707l-0.853,0.853c-0.853,0-0.853,0.853-1.707,0.853s-0.853,0.853-1.707,0.853s-0.853,0-1.707,0
			s-0.853,0-1.707,0c-0.853,0-0.853,0-1.707-0.853c-0.853,0-0.853,0-1.707-0.853l-0.853-0.853c-1.707-2.56-2.56-4.267-2.56-6.827
			s0.853-4.267,2.56-5.973l0.853-0.853c0.853,0,0.853-0.853,1.707-0.853c0.853,0,0.853,0,1.707-0.853c2.56-0.853,5.973,0,7.68,2.56
			c0,0.853,0.853,0.853,0.853,1.707c0,0,0.853,0.853,0.853,1.707s0,0.853,0.853,1.707C435.2,221.867,435.2,221.867,435.2,222.72z
			 M426.667,179.2h-85.333c-5.12,0-8.533-3.413-8.533-8.533c0-5.12,3.413-8.533,8.533-8.533h85.333c5.12,0,8.533,3.413,8.533,8.533
			C435.2,175.787,431.787,179.2,426.667,179.2z M426.667,128h-128c-5.12,0-8.533-3.413-8.533-8.533s3.413-8.533,8.533-8.533h128
			c5.12,0,8.533,3.413,8.533,8.533S431.787,128,426.667,128z M435.2,69.12c0,0.853,0,0,0,0.853s0,0.853-0.853,1.707
			c0,0.853,0,0.853-0.853,1.707c0,0-0.853,0.853-0.853,1.707l-0.853,0.853c-0.853,0-0.853,0.853-1.707,0.853
			s-0.853,0.853-1.707,0.853s-0.853,0-1.707,0s-0.853,0-1.707,0c-0.853,0-0.853,0-1.707-0.853c-0.853,0-0.853,0-1.707-0.853
			l-0.853-0.853c-1.707-2.56-2.56-4.267-2.56-6.827s0.853-4.267,2.56-5.973l0.853-0.853c0.853,0,0.853-0.853,1.707-0.853
			c0.853,0,0.853,0,1.707-0.853c2.56-0.853,5.973,0,7.68,2.56c0,0.853,0.853,0.853,0.853,1.707c0,0,0.853,0.853,0.853,1.707
			s0,0.853,0.853,1.707C435.2,68.267,435.2,68.267,435.2,69.12z"/>
	</g>
</g>
<g>
</g>
<g>
</g>
<g>
</g>
<g>
</g>
<g>
</g>
<g>
</g>
<g>
</g>
<g>
</g>
<g>
</g>
<g>
</g>
<g>
</g>
<g>
</g>
<g>
</g>
<g>
</g>
<g>
</g>
</svg>
