<?xml version="1.0" encoding="utf-8"?><svg xmlns="http://www.w3.org/2000/svg" xmlns:xlink="http://www.w3.org/1999/xlink" width="1366" height="115" preserveAspectRatio="xMidYMid" viewBox="0 0 1366 115" style="z-index:1;display:block;background-color:rgb(241, 242, 243);animation-play-state:paused" ><g transform="translate(683,57.5) scale(1,1) translate(-683,-57.5)" style="animation-play-state:paused" ><linearGradient id="lg-0.8351390682487259" x1="0" x2="1" y1="0" y2="0" style="animation-play-state:paused" ><stop stop-color="#000b79" offset="0" style="animation-play-state:paused" ></stop>

  
<stop stop-color="#8c92e7" offset="1" style="animation-play-state:paused" ></stop></linearGradient>
<path d="M0 0L0 105.9705581665039Q136.60000610351562 117.79905700683594 273.20001220703125 99.32699584960938T546.4000244140625 75.83233642578125T819.5999755859375 76.32275390625T1092.800048828125 67.8168716430664T1366 51.63682174682617L1366 0z" fill="url(#lg-0.8351390682487259)" opacity="0.4" style="opacity:0.4;animation-play-state:paused" ></path>
<path d="M0 0L0 101.9914779663086Q136.60000610351562 103.2971420288086 273.20001220703125 88.30198669433594T546.4000244140625 83.5678939819336T819.5999755859375 79.16547393798828T1092.800048828125 61.34199523925781T1366 46.952392578125L1366 0z" fill="url(#lg-0.8351390682487259)" opacity="0.4" style="opacity:0.4;animation-play-state:paused" ></path>
<path d="M0 0L0 111.09608459472656Q136.60000610351562 114.27483367919922 273.20001220703125 95.02191925048828T546.4000244140625 78.90294647216797T819.5999755859375 74.41378021240234T1092.800048828125 56.44038391113281T1366 45.56467056274414L1366 0z" fill="url(#lg-0.8351390682487259)" opacity="0.4" style="opacity:0.4;animation-play-state:paused" ></path>
<path d="M0 0L0 102.56510925292969Q136.60000610351562 137.1228485107422 273.20001220703125 97.24884033203125T546.4000244140625 79.29412078857422T819.5999755859375 73.57743835449219T1092.800048828125 53.118247985839844T1366 45.66499710083008L1366 0z" fill="url(#lg-0.8351390682487259)" opacity="0.4" style="opacity:0.4;animation-play-state:paused" ></path>
<path d="M0 0L0 107.79590606689453Q136.60000610351562 118.75007629394531 273.20001220703125 90.0745849609375T546.4000244140625 79.1535415649414T819.5999755859375 65.28710174560547T1092.800048828125 61.172767639160156T1366 49.076011657714844L1366 0z" fill="url(#lg-0.8351390682487259)" opacity="0.4" style="opacity:0.4;animation-play-state:paused" ></path></g></svg>