<?xml version="1.0" encoding="utf-8"?>
<!-- Generator: Adobe Illustrator 17.1.0, SVG Export Plug-In . SVG Version: 6.00 Build 0)  -->
<!DOCTYPE svg PUBLIC "-//W3C//DTD SVG 1.1//EN" "http://www.w3.org/Graphics/SVG/1.1/DTD/svg11.dtd">
<svg version="1.1" id="wave" xmlns="http://www.w3.org/2000/svg" xmlns:xlink="http://www.w3.org/1999/xlink" x="0px" y="0px"
	 viewBox="0 0 720 720" enable-background="new 0 0 720 720" xml:space="preserve">
<linearGradient id="SVGID_1_" gradientUnits="userSpaceOnUse" x1="0.5" y1="719" x2="0.5" y2="720" gradientTransform="matrix(3456 0 0 108.8309 0 -77933.2578)">
	<stop  offset="0" style="stop-color:#000000"/>
	<stop  offset="1" style="stop-color:#000000"/>
</linearGradient>
<path fill="url(#SVGID_1_)" d="M0,316.2h24c24,0,72,0,120,0s96,0,144,0s96,0,144,0s96,0,144,0s96,0,144,0s96,0,144,0s96,0,144,0
	s96,0,144,0s96,0,144,0s96,0,144,0s96,0,144,0s96,0,144,0s96,0,144,0s96,0,144,0s96,0,144,0s96,0,144,0s96,0,144,0s96,0,144,0
	s96,0,144,0s96,0,144,0s96,0,144,0s96,0,144,0s96,0,144,0s96,0,120,0h24v13l-24,17.4c-24,17.1-72,52.1-120,67.1s-96,11-144-6.5
	s-96-47.5-144-43.4c-48,4.4-96,43.4-144,54.2c-48,10.6-96-6.4-144-23.9s-96-34.5-144-45.5s-96-15-144-17.4c-48-2.1-96-2.1-144,4.4
	s-96,19.5-144,36.9c-48,17.1-96,39.1-144,47.6s-96,4.5-144-2.1c-48-6.4-96-15.4-144-17.4s-96,2-144-6.5s-96-30.5-144-43.4
	c-48-13.1-96-17.1-144,0c-48,17.4-96,56.4-144,60.7c-48,4.1-96-25.9-144-39c-48-12.9-96-8.9-144,4.3c-48,12.9-96,34.9-144,39
	c-48,4.4-96-8.6-144-21.6s-96-26-144-30.4c-48-4.1-96-0.1-144,10.9s-96,28-144,26s-96-24-120-34.6L0,355.2V316.2z"/>
</svg>
