<?xml version="1.0" standalone="no"?>
<svg xmlns:xlink="http://www.w3.org/1999/xlink" id="wave" style="transform:rotate(180deg); transition: 0.3s" viewBox="0 0 1440 140" version="1.1" xmlns="http://www.w3.org/2000/svg"><defs><linearGradient id="sw-gradient-0" x1="0" x2="0" y1="1" y2="0"><stop stop-color="rgba(0, 11, 118, 1)" offset="0%"/><stop stop-color="rgba(105.478, 171.565, 223.58, 1)" offset="100%"/></linearGradient></defs><path style="transform:translate(0, 0px); opacity:1" fill="url(#sw-gradient-0)" d="M0,28L48,35C96,42,192,56,288,60.7C384,65,480,61,576,56C672,51,768,47,864,39.7C960,33,1056,23,1152,23.3C1248,23,1344,33,1440,44.3C1536,56,1632,70,1728,72.3C1824,75,1920,65,2016,72.3C2112,79,2208,103,2304,105C2400,107,2496,89,2592,81.7C2688,75,2784,79,2880,84C2976,89,3072,93,3168,86.3C3264,79,3360,61,3456,53.7C3552,47,3648,51,3744,60.7C3840,70,3936,84,4032,95.7C4128,107,4224,117,4320,119C4416,121,4512,117,4608,100.3C4704,84,4800,56,4896,51.3C4992,47,5088,65,5184,60.7C5280,56,5376,28,5472,28C5568,28,5664,56,5760,74.7C5856,93,5952,103,6048,107.3C6144,112,6240,112,6336,107.3C6432,103,6528,93,6624,95.7C6720,98,6816,112,6864,119L6912,126L6912,140L6864,140C6816,140,6720,140,6624,140C6528,140,6432,140,6336,140C6240,140,6144,140,6048,140C5952,140,5856,140,5760,140C5664,140,5568,140,5472,140C5376,140,5280,140,5184,140C5088,140,4992,140,4896,140C4800,140,4704,140,4608,140C4512,140,4416,140,4320,140C4224,140,4128,140,4032,140C3936,140,3840,140,3744,140C3648,140,3552,140,3456,140C3360,140,3264,140,3168,140C3072,140,2976,140,2880,140C2784,140,2688,140,2592,140C2496,140,2400,140,2304,140C2208,140,2112,140,2016,140C1920,140,1824,140,1728,140C1632,140,1536,140,1440,140C1344,140,1248,140,1152,140C1056,140,960,140,864,140C768,140,672,140,576,140C480,140,384,140,288,140C192,140,96,140,48,140L0,140Z"/></svg>